<svg xmlns="http://www.w3.org/2000/svg" width="1200" height="630" viewBox="0 0 1200 630">
  <defs>
    <linearGradient id="bg" x1="0" y1="0" x2="1" y2="1">
      <stop offset="0%" stop-color="#0c1220"/>
      <stop offset="100%" stop-color="#1a2744"/>
    </linearGradient>
  </defs>
  <rect width="1200" height="630" fill="url(#bg)"/>
  <text x="60" y="90" fill="#f0f4ff" font-family="Georgia, serif" font-size="48" font-weight="700">H. Wayne Hayes Jr</text>
  <text x="60" y="140" fill="#a0b4d2" font-family="system-ui,sans-serif" font-size="26">Leadership</text>
  <rect x="60" y="220" width="340" height="300" rx="16" fill="#ffffff" fill-opacity="0.95"/>
  <circle cx="230" cy="340" r="56" fill="#0d4f8b"/>
  <text x="230" y="350" text-anchor="middle" fill="#fff" font-family="system-ui,sans-serif" font-size="42" font-weight="700">P</text>
  <text x="230" y="440" text-anchor="middle" fill="#0c1220" font-family="system-ui,sans-serif" font-size="26" font-weight="700">PatientTrac</text>
  <text x="230" y="475" text-anchor="middle" fill="#4a6078" font-family="system-ui,sans-serif" font-size="16">patienttrac.com</text>
  <rect x="430" y="220" width="340" height="300" rx="16" fill="#ffffff" fill-opacity="0.95"/>
  <ellipse cx="600" cy="340" rx="58" ry="50" fill="#1a3a2a"/>
  <text x="600" y="350" text-anchor="middle" fill="#c9a227" font-family="Georgia,serif" font-size="28" font-weight="700">PTL</text>
  <text x="600" y="440" text-anchor="middle" fill="#0c1220" font-family="system-ui,sans-serif" font-size="24" font-weight="700">PatientTrac Limited</text>
  <text x="600" y="475" text-anchor="middle" fill="#4a6078" font-family="system-ui,sans-serif" font-size="16">patienttracltd.com</text>
  <rect x="800" y="220" width="340" height="300" rx="16" fill="#ffffff" fill-opacity="0.95"/>
  <path d="M970 280 L1020 300 L1020 370 L970 400 L920 370 L920 300 Z" fill="#1e3a5f" stroke="#c9a227" stroke-width="3"/>
  <text x="970" y="350" text-anchor="middle" fill="#c9a227" font-family="system-ui,sans-serif" font-size="22" font-weight="700">AIQ</text>
  <text x="970" y="440" text-anchor="middle" fill="#0c1220" font-family="system-ui,sans-serif" font-size="26" font-weight="700">AegisIQ</text>
  <text x="970" y="475" text-anchor="middle" fill="#4a6078" font-family="system-ui,sans-serif" font-size="16">aegisiqgroup.com</text>
</svg>
